/* XPM */
static const char * icon_vhf_main_xpm[] = {
"48 48 305 2",
"  	c None",
". 	c #7994B5",
"+ 	c #8BA3C2",
"@ 	c #859FBF",
"# 	c #859EBE",
"$ 	c #849EBE",
"% 	c #839DBD",
"& 	c #829CBD",
"* 	c #829DBD",
"= 	c #88A1C0",
"- 	c #809BBC",
"; 	c #506B8E",
"> 	c #607C9E",
", 	c #6D8AAF",
"' 	c #7391B5",
") 	c #7290B5",
"! 	c #718FB4",
"~ 	c #708EB3",
"{ 	c #7693B7",
"] 	c #7D99BB",
"^ 	c #7F9ABB",
"/ 	c #3A5678",
"( 	c #466387",
"_ 	c #517096",
": 	c #5D7DA6",
"< 	c #6182AC",
"[ 	c #6082AB",
"} 	c #5F81AB",
"| 	c #5E80AA",
"1 	c #6787AF",
"2 	c #7B96B9",
"3 	c #839DBE",
"4 	c #274366",
"5 	c #304E72",
"6 	c #3A5981",
"7 	c #43658F",
"8 	c #4C709D",
"9 	c #4F74A2",
"0 	c #4E73A2",
"a 	c #4D73A1",
"b 	c #4C72A1",
"c 	c #567AA6",
"d 	c #6384AD",
"e 	c #7C98BA",
"f 	c #1F3C60",
"g 	c #26466D",
"h 	c #2D4F7A",
"i 	c #345987",
"j 	c #3B6294",
"k 	c #3E6699",
"l 	c #3D6699",
"m 	c #3C6598",
"n 	c #3B6498",
"o 	c #476E9E",
"p 	c #6585AE",
"q 	c #7592B6",
"r 	c #132F51",
"s 	c #17355B",
"t 	c #1B3D66",
"u 	c #1F4472",
"v 	c #234C7E",
"w 	c #28538A",
"x 	c #2A578F",
"y 	c #29568E",
"z 	c #28558E",
"A 	c #27548D",
"B 	c #356095",
"C 	c #486E9E",
"D 	c #5A7DA8",
"E 	c #6C8BB1",
"F 	c #7E99BB",
"G 	c #89A2C1",
"H 	c #0C2749",
"I 	c #0F2F57",
"J 	c #103461",
"K 	c #123A6B",
"L 	c #143F75",
"M 	c #164580",
"N 	c #174885",
"O 	c #204F89",
"P 	c #214F8A",
"Q 	c #2A568E",
"R 	c #5175A3",
"S 	c #7A96B9",
"T 	c #94AAC6",
"U 	c #0D294C",
"V 	c #21508A",
"W 	c #CCD6E4",
"X 	c #CDD8E5",
"Y 	c #CCD7E4",
"Z 	c #BCCADC",
"` 	c #7995B8",
" .	c #3C6498",
"..	c #5075A3",
"+.	c #8EA6C3",
"@.	c #0E2E56",
"#.	c #466D9D",
"$.	c #B8C7DA",
"%.	c #D0DAE6",
"&.	c #CBD6E3",
"*.	c #96ACC7",
"=.	c #436B9C",
"-.	c #1A4A86",
";.	c #26548D",
">.	c #1D4D88",
",.	c #CED8E5",
"'.	c #ABBCD2",
").	c #6485AD",
"!.	c #103460",
"~.	c #16457F",
"{.	c #B1C2D6",
"].	c #2C5990",
"^.	c #8DA5C3",
"/.	c #12396A",
"(.	c #184985",
"_.	c #6F8DB3",
":.	c #CAD5E3",
"<.	c #C7D3E1",
"[.	c #7894B8",
"}.	c #0D284B",
"|.	c #AABCD2",
"1.	c #A5B8D0",
"2.	c #1E4D88",
"3.	c #3A6397",
"4.	c #143F74",
"5.	c #C6D2E1",
"6.	c #CFD9E6",
"7.	c #B7C6D9",
"8.	c #25538C",
"9.	c #0E2E55",
"0.	c #10335F",
"a.	c #2D5990",
"b.	c #9FB3CC",
"c.	c #B5C4D8",
"d.	c #456C9D",
"e.	c #16447F",
"f.	c #587BA7",
"g.	c #C2CFDF",
"h.	c #396397",
"i.	c #8CA4C2",
"j.	c #94ABC7",
"k.	c #BFCCDD",
"l.	c #7491B6",
"m.	c #6283AC",
"n.	c #7794B7",
"o.	c #0C284B",
"p.	c #143E74",
"q.	c #9CB1CB",
"r.	c #446B9C",
"s.	c #194A86",
"t.	c #123969",
"u.	c #376196",
"v.	c #B9C8DA",
"w.	c #6A8AB1",
"x.	c #23528B",
"y.	c #24528C",
"z.	c #0C284A",
"A.	c #93AAC6",
"B.	c #386296",
"C.	c #10335E",
"D.	c #15447E",
"E.	c #86A0BF",
"F.	c #C8D3E2",
"G.	c #143E73",
"H.	c #9AAFC9",
"I.	c #AEBFD4",
"J.	c #577AA6",
"K.	c #8AA3C1",
"L.	c #0E2D54",
"M.	c #C5D1E0",
"N.	c #2F5B91",
"O.	c #133E73",
"P.	c #B3C3D7",
"Q.	c #A7BAD1",
"R.	c #4B71A0",
"S.	c #40699B",
"T.	c #22518B",
"U.	c #C1CEDE",
"V.	c #A2B5CE",
"W.	c #5276A4",
"X.	c #0E2D53",
"Y.	c #123868",
"Z.	c #C9D4E2",
"`.	c #366195",
" +	c #133E72",
".+	c #5478A5",
"++	c #A9BBD2",
"@+	c #A8BAD1",
"#+	c #A6B9D0",
"$+	c #C2CEDE",
"%+	c #15447D",
"&+	c #95ABC7",
"*+	c #1C4C87",
"=+	c #10325D",
"-+	c #A3B6CE",
";+	c #5377A4",
">+	c #4A70A0",
",+	c #AFC0D5",
"'+	c #5C7EA9",
")+	c #BBC9DB",
"!+	c #113867",
"~+	c #133D72",
"{+	c #496F9F",
"]+	c #C3D0DF",
"^+	c #49709F",
"/+	c #0C2748",
"(+	c #0E2C52",
"_+	c #15437D",
":+	c #87A0C0",
"<+	c #133D71",
"[+	c #3F689A",
"}+	c #C4D1E0",
"|+	c #5579A6",
"1+	c #2E5A91",
"2+	c #BAC9DB",
"3+	c #355F94",
"4+	c #10325C",
"5+	c #113767",
"6+	c #15437C",
"7+	c #305C92",
"8+	c #B4C4D7",
"9+	c #5D7FAA",
"0+	c #0C2647",
"a+	c #113766",
"b+	c #9EB2CC",
"c+	c #98ADC8",
"d+	c #345E94",
"e+	c #5D7FA9",
"f+	c #0B2444",
"g+	c #0E2C51",
"h+	c #0F315C",
"i+	c #164784",
"j+	c #376195",
"k+	c #28558D",
"l+	c #164783",
"m+	c #1E4D87",
"n+	c #325D92",
"o+	c #466D9C",
"p+	c #5B7DA7",
"q+	c #6F8CB1",
"r+	c #89A1BF",
"s+	c #0D2A4F",
"t+	c #0F2F58",
"u+	c #17457D",
"v+	c #16447D",
"w+	c #15427B",
"x+	c #15427A",
"y+	c #154179",
"z+	c #144179",
"A+	c #144178",
"B+	c #144077",
"C+	c #144076",
"D+	c #1A4478",
"E+	c #2B5181",
"F+	c #3B5E89",
"G+	c #4C6B92",
"H+	c #5C779A",
"I+	c #6781A1",
"J+	c #0F305A",
"K+	c #103562",
"L+	c #133C70",
"M+	c #133C6F",
"N+	c #133B6E",
"O+	c #123B6D",
"P+	c #123A6C",
"Q+	c #173D6D",
"R+	c #254873",
"S+	c #32527A",
"T+	c #405D81",
"U+	c #4D6788",
"V+	c #0D294D",
"W+	c #0F3059",
"X+	c #113765",
"Y+	c #113665",
"Z+	c #113664",
"`+	c #113563",
" @	c #113562",
".@	c #143661",
"+@	c #1F3E66",
"@@	c #29466B",
"#@	c #334F71",
"$@	c #3D5777",
"%@	c #0D2B50",
"&@	c #0F3058",
"*@	c #112F54",
"=@	c #183558",
"-@	c #203B5C",
";@	c #284161",
">@	c #0D2A4E",
",@	c #0D2A4D",
"'@	c #0E2848",
")@	c #122B4B",
"!@	c #173151",
"~@	c #0C2545",
"{@	c #0B2240",
"]@	c #0B2443",
"^@	c #0B2442",
"/@	c #0B2342",
"(@	c #0B2341",
"_@	c #0B2340",
":@	c #0B223F",
"<@	c #0A223F",
"[@	c #0A213E",
"}@	c #0A213D",
"|@	c #091F39",
"          . + @ # # # # # # # $ $ $ $ $ $ % % % % % % % % % % % & & & & & & & & * = -           ",
"      ; > , ' ) ) ) ) ) ) ) ) ) ) ) ! ! ! ! ! ! ! ! ! ! ! ! ! ! ! ! ! ! ~ ~ ~ ~ ~ ~ { ] ^       ",
"    / ( _ : < < < < < < < < < < [ [ [ [ [ [ } } } } } } } } } } | | | | | | | | | | 1 ! 2 3     ",
"  4 5 6 7 8 9 9 9 9 9 9 9 9 9 9 9 0 0 0 0 0 0 0 0 0 0 0 a a a a a a b b b b b b b b c d ~ e 3   ",
"  f g h i j k k k k k k k k k l l l l l l m m m m m m m m m m m n n n n n n n n n n o c p q #   ",
"r s t u v w x y y y y y y y y y y y y y y z z z z z z z z z z z z z z A A A A A A z B C D E F G ",
"H I J K L M N N N N N N N N N N N N N N N N N N N N N N N O P P P P P P P P P P P O Q m R p S T ",
"U I J K L M N N N N N N N N N N N N N N N N N N N N N V @ W X X X Y Y Y Y Y Y Y Z `  .m ..p S +.",
"U @.J K L M N N N N N N N N N N N N N N N N N N N N #.$.%.%.%.%.%.%.%.%.%.%.&.*.=.-.;.n ..p S +.",
"U @.J K L M N N N N N N N N N N N N N N N N N N >.2 X %.%.%.%.%.%.%.%.%.,.'.D O N N ;.n 9 ).` +.",
"U @.!.K L ~.N N N N N N N N N N N N N N N N N l {.%.%.%.%.%.%.%.%.%.%.Z ' ].N N N N ;.n 9 ).` ^.",
"U @.!./.L ~.N N N N N N N N N N N N N N N (._.:.%.%.%.%.%.%.%.%.%.<.+.l (.N N N N N ;.n 9 ).[.^.",
"}.@.!./.L ~.N N N N N N N N N N N N N N B |.%.%.%.%.%.%.%.%.%.X 1.R 2.N N N N N N N ;.3.9 ).[.^.",
"}.@.!./.4.~.N N N N N N N N N N N N (.).5.%.%.%.%.%.%.%.%.6.7.E y N N N N N N N N N 8.3.9 ).[.^.",
"}.9.0./.4.~.N N N N N N N N N N N a.b.%.%.%.%.%.%.%.%.%.%.c.d.(.N N N N N N N N N N 8.3.0 d [.^.",
"}.9.0./.4.e.N N N N N N N N N N f.g.%.%.%.%.%.%.%.%.%.%.%.X &.&.&.&.&.W W W :.b.C (.8.h.0 d [.i.",
"}.9.0./.4.e.N N N N N N N N A j.6.%.%.%.%.%.%.%.%.%.%.%.%.%.%.%.%.%.%.%.%.k.l.y N N 8.h.0 m.n.i.",
"o.9.0./.p.e.N N N N N N N a Z %.%.%.%.%.%.%.%.%.%.%.%.%.%.%.%.%.%.%.%.X q.r.s.N N N 8.h.0 m.n.+ ",
"o.9.0.t.p.e.N N N N N N u.~ ! ! ! ! ! ! ! ! e 5.%.%.%.%.%.%.%.%.%.%.v.w.x.N N N N N y.h.0 m.n.+ ",
"z.9.0.t.p.e.N N N N N N N N N N N N N N N N | Y %.%.%.%.%.%.%.%.&.A.l (.N N N N N N y.B.a m.n.+ ",
"z.9.0.t.p.e.N N N N N N N N N N N N N N N 2 ,.%.%.%.%.%.%.%.%.c.< P N N N N N N N N x.B.a m.{ + ",
"z.9.C.t.p.D.N N N N N N N N N N N N N >.E.%.%.%.%.%.%.%.%.F.G B N N N N N N N N N N x.B.b < { + ",
"z.9.C.t.G.D.N N N N N N N N N N N N 2.H.%.%.%.%.%.%.%.,.I.J.2.N N N N N N N N N N N x.B.b < { K.",
"z.L.C.t.G.D.N N N N N N N N N N N A I.%.%.%.%.%.%.%.M.- N.N N N N N N N N N N N N N x.B.b < q K.",
"z.L.C.t.O.D.N N N N N N N N N N B P.%.%.%.%.%.%.%.%.Q.R.S.S.S.S.S.S.S.S.h.T.N N N N x.u.b < q K.",
"z.L.C.t.O.D.N N N N N N N N N l U.%.%.%.%.%.%.%.%.%.%.%.%.%.%.%.%.%.W V.W.O N N N N T.u.b < q K.",
"z.X.C.Y.O.D.N N N N N N N N W.Z.%.%.%.%.%.%.%.%.%.%.%.%.%.%.%.%.,.I.m.;.N N N N N N T.u.R.[ q K.",
"z.X.C.Y.O.D.N N N N N N N < Y %.%.%.%.%.%.%.%.%.%.%.%.%.%.%.6.$.' a.N N N N N N N N T.`.R.[ q G ",
"H X.C.Y. +D.N N N N N N .+++++@+Q.#+Z %.%.%.%.%.%.%.%.%.%.$+$ h.(.N N N N N N N N N T.`.R.} l.G ",
"H X.C.Y. +%+N N N N N N P P P O O O *.%.%.%.%.%.%.%.%.Z.&+d.*+N N N N N N N N N N N T.`.R.} l.= ",
"H X.=+Y. +%+N N N N N N N N N N N l.%.%.%.%.%.%.%.W -+;+O N N N N N N N N N N N N N V `.>+} l.= ",
"H X.=+Y. +%+N N N N N N N N N N } ,.%.%.%.%.%.,.,+).A N N N N N N N N N N N N N N N V B >+} l.= ",
"H X.=+Y. +%+N N N N N N N N N '+X %.%.%.%.%.)+{ N.N N N N N N N N N N N N N N N N N P B >+} ' = ",
"H X.=+!+~+%+N N N N N N N N {+X %.%.%.%.]+@ h.(.N N N N N N N N N N N N N N N N N N P B ^+| ' = ",
"/+(+=+!+~+_+N N N N N N N =.5.%.%.%.Z.*.o *+N N N N N N N N N N N N N N N N N N N N P B ^+| ) :+",
"/+(+=+!+<+_+N N N N N N [+}+%.%.X #+|+P N N N N N N N N N N N N N N N N N N N N N N P B ^+| ) :+",
"/+(+=+!+<+_+N N N N N 1+2+%.,.{.p A N N N N N N N N N N N N N N N N N N N N N N N N P 3+^+| ) :+",
"/+(+4+5+<+6+N N N N 1+7.%.)+[.7+N N N N N N N N N N N N N N N N N N N N N N N N N N O 3+^+| ) :+",
"/+(+4+5+<+6+N N N T.8+}+= n s.N N N N N N N N N N N N N N N N N N N N N N N N N N N O 3+{+9+) E.",
"0+(+4+a+<+6+N N O b+c+C *+N N N N N N N N N N N N N N N N N N N N N N N N N N N N N O d+{+9+! E.",
"0+(+4+a+<+6+N >.n.J.V N N N N N N N N N N N N N N N N N N N N N N N N N N N N N N N O d+{+e+! :+",
"f+g+h+a+<+6+i+j+k+i+i+i+i+i+i+i+i+i+i+l+l+l+l+l+l+l+l+l+l+l+l+l+l+l+l+l+l+l+l+l+l+l+m+n+o+p+q+r+",
"H s+t+J /.4.u+v+6+6+w+w+w+w+w+x+x+x+x+x+y+y+y+z+z+z+A+A+B+B+B+B+B+B+B+C+C+C+C+C+L L D+E+F+G+H+I+",
"  z.(+J+K+/.<+L+L+L+L+L+L+M+M+M+M+M+N+N+N+N+N+N+O+O+O+O+O+P+P+P+P+K K K K K /./././.Q+R+S+T+U+  ",
"  z.V+X.W+!.X+Y+Y+Y+Z+Z+Z+Z+Z+`+`+`+`+`+`+`+ @ @K+K+K+J J J J J !.!.!.!.0.0.0.0.0.C..@+@@@#@$@  ",
"    /+U %@@.J+J+W+W+W+W+W+&@&@&@t+t+t+I I I I I I @.@.@.@.@.9.9.9.9.9.9.L.L.X.X.X.X.*@=@-@;@    ",
"      /+/+U >@>@>@>@>@,@,@,@V+V+V+U U U U U }.}.}.}.o.o.z.z.z.z.z.z.z.H H H H /+/+/+'@)@!@      ",
"          ~@{@]@]@^@^@^@/@/@/@(@(@(@(@(@(@_@_@_@{@{@:@:@:@<@<@<@[@[@[@[@[@}@}@}@}@|@(@          "};
